<?xml version="1.0" encoding="UTF-8"?>
<svg id="Layer_2" data-name="Layer 2" xmlns="http://www.w3.org/2000/svg" xmlns:xlink="http://www.w3.org/1999/xlink" viewBox="0 0 63.1 74.22">
  <defs>
    <style>
      .cls-1 {
        fill: none;
      }

      .cls-2 {
        fill-rule: evenodd;
      }

      .cls-2, .cls-3 {
        fill: #fff;
      }

      .cls-4 {
        clip-path: url(#clippath-1);
      }

      .cls-5 {
        clip-path: url(#clippath);
      }
    </style>
    <clipPath id="clippath">
      <rect class="cls-1" y="0" width="63.1" height="74.22"/>
    </clipPath>
    <clipPath id="clippath-1">
      <rect class="cls-1" y="0" width="63.1" height="74.22"/>
    </clipPath>
  </defs>
  <g id="Layer_1-2" data-name="Layer 1">
    <g id="SRS_Logo_En_and_Ar_White" data-name="SRS Logo En and Ar White">
      <g class="cls-5">
        <g class="cls-4">
          <path class="cls-3" d="M3.77,66.3c-.11,0-.2.03-.27.11-.08.08-.12.17-.12.28s.04.2.12.27c.08.08.17.11.27.11s.19-.04.27-.12c.08-.07.12-.16.12-.27s-.04-.2-.12-.28c-.08-.07-.17-.11-.27-.11"/>
          <path class="cls-3" d="M2.76,66.3c-.1,0-.19.03-.27.11-.08.08-.12.17-.12.28s.04.2.12.27c.08.08.17.11.27.11s.19-.04.27-.12c.08-.07.12-.16.12-.27s-.04-.2-.12-.28c-.08-.07-.17-.11-.27-.11"/>
          <path class="cls-3" d="M18.7,61.27v2.36c0,.28-.14.42-.43.42h-2.54v-.68c0-.5.16-.75.48-.75.1,0,.2.02.29.07.06.03.13.08.21.16l.5-.49c-.28-.26-.61-.39-.98-.39-.34,0-.62.11-.84.34-.25.25-.38.61-.38,1.07v.68h-1.23c-.13,0-.24-.03-.31-.1-.08-.07-.12-.18-.12-.31v-2.61l-.72.23v2.36c0,.28-.14.42-.42.42h-1.03c-.16,0-.29-.03-.38-.11-.09-.06-.14-.17-.17-.31-.03-.16-.07-.28-.1-.36-.07-.17-.17-.31-.3-.42-.21-.18-.47-.27-.78-.27-.23,0-.44.05-.61.15-.19.1-.33.26-.43.47-.06.11-.1.26-.14.45-.02.12-.07.21-.13.28-.09.08-.21.12-.39.12H3.52l-.04.08c.05.16.14.29.26.39.11.09.24.15.39.19-.05.08-.09.13-.12.17-.07.07-.16.13-.26.17-.13.05-.29.07-.49.07-.28,0-.5-.08-.66-.24-.16-.15-.23-.38-.23-.66,0-.22.03-.47.11-.72.06-.22.16-.48.29-.77l-.86.55c-.16.4-.24.75-.24,1.06,0,.41.13.75.39,1.01.29.29.69.43,1.2.43.3,0,.56-.04.79-.13.28-.11.48-.29.61-.53.05-.1.09-.24.12-.41h3.01c.25,0,.46-.06.62-.19.08.15.18.27.29.36.2.16.45.24.76.24s.55-.08.74-.23c.13-.1.24-.24.32-.42.2.16.43.24.69.24h1.03c.29,0,.54-.09.75-.28.21.19.46.28.73.28h4.58c.34,0,.62-.09.82-.27.21-.19.31-.45.31-.78v-2.63l-.72.23ZM9.43,64.49c-.11,0-.21-.03-.28-.11-.11-.1-.17-.27-.17-.52,0-.17.03-.31.1-.42.08-.14.2-.21.37-.21s.28.07.36.21c.06.11.1.25.1.42,0,.41-.16.62-.47.62"/>
          <polygon class="cls-3" points="20.09 64.72 20.82 64.72 20.82 61.04 20.09 61.27 20.09 64.72"/>
          <path class="cls-3" d="M24.5,61.71c.1,0,.18-.04.25-.11.07-.07.11-.16.11-.26s-.04-.19-.11-.26c-.07-.07-.16-.11-.25-.11s-.18.04-.25.11c-.07.08-.11.16-.11.26s.04.18.11.26c.07.07.16.11.25.11"/>
          <path class="cls-3" d="M24.63,62.2c0,.1.04.2.12.28.08.07.17.11.27.11s.19-.04.27-.12c.08-.08.12-.17.12-.27s-.04-.2-.12-.27c-.08-.08-.17-.11-.27-.11s-.19.04-.27.11c-.08.08-.12.17-.12.27"/>
          <path class="cls-3" d="M24.01,62.59c.1,0,.19-.04.27-.12.08-.08.12-.17.12-.27s-.04-.2-.12-.27c-.08-.07-.17-.11-.27-.11-.11,0-.2.04-.27.11-.08.08-.12.17-.12.27s.04.2.12.28c.08.07.17.11.27.11"/>
          <path class="cls-3" d="M34.99,65.22c-.11,0-.2.04-.27.11-.08.08-.12.17-.12.28s.04.2.12.27c.08.07.17.11.27.11s.19-.04.27-.12c.08-.08.12-.16.12-.27s-.04-.2-.12-.28c-.08-.08-.17-.11-.27-.11"/>
          <path class="cls-3" d="M36.97,63.64c0,.28-.14.42-.43.42h-.7c-.14,0-.24-.03-.32-.09-.08-.08-.12-.18-.12-.32v-1.41l-.72.24v1.16c0,.28-.14.42-.42.42h-1.95v-.36c0-.29-.03-.52-.09-.7-.07-.19-.17-.36-.3-.49-.26-.27-.6-.4-1.01-.4-.3,0-.58.07-.84.22-.17.09-.32.22-.46.38l.45.45c.25-.26.53-.38.84-.38.27,0,.47.13.58.38.07.16.11.36.11.6v.3h-4.35c-.13,0-.24-.03-.31-.1-.08-.07-.12-.18-.12-.32v-1.41l-.73.24v1.16c0,.28-.14.42-.41.42h-2.31c-.27,0-.41-.14-.41-.42v-1.18l-.73.62v.57c0,.31.08.56.25.74.19.22.49.33.88.33h2.35c.29,0,.54-.09.75-.27.21.18.46.27.73.27h7.12c.29,0,.54-.09.75-.27.21.18.46.27.73.27h.78c.34,0,.62-.09.82-.27.21-.19.31-.45.31-.78v-2.63l-.72.24v2.36Z"/>
          <polygon class="cls-3" points="38.35 64.72 39.08 64.72 39.08 61.04 38.35 61.27 38.35 64.72"/>
          <path class="cls-3" d="M46.39,63.65c0,.27-.13.41-.41.41h-.43v-1.8l-.72.24v1.57h-.82v-1.58l-.74.23v1.58c0,.26-.1.47-.29.62-.18.14-.41.22-.71.22-.65,0-1.02-.3-1.08-.89,0-.08-.01-.27-.01-.6v-.23l-.72.21v.35c0,.42.09.78.24,1.08.1.21.26.38.47.5.29.17.66.26,1.12.26.39,0,.73-.07,1-.21.22-.12.39-.27.52-.47.06-.09.11-.23.16-.4h2.03c.35,0,.63-.1.83-.3.18-.18.27-.42.27-.72v-1.63s-.72.24-.72.24v1.35Z"/>
          <path class="cls-3" d="M48.91,64.35c0,.25-.08.46-.23.61-.14.14-.32.21-.55.21-.33,0-.64-.1-.93-.29l.33.74c.09.04.18.08.27.11.18.05.35.08.51.08.16,0,.31-.02.47-.08.22-.07.4-.19.55-.34.21-.23.32-.53.32-.9v-2.41l-.73.24v2.05Z"/>
          <polygon class="cls-3" points="50.29 64.72 51.02 64.72 51.02 61.04 50.29 61.27 50.29 64.72"/>
          <path class="cls-3" d="M59.22,62.47c-.21-.23-.5-.35-.87-.35-.34,0-.61.09-.81.28-.25.23-.37.58-.37,1.04v.18c0,.3-.14.44-.43.44h-2.8v-.88c0-.34-.11-.61-.34-.81-.19-.18-.43-.26-.72-.26-.34,0-.64.13-.92.38v.68c.26-.27.51-.41.76-.41.14,0,.26.04.35.13.1.1.16.22.16.38v.79h-1.28l-.43.66h5.39c.14,0,.25-.01.35-.04.11-.03.22-.09.32-.18.23.17.49.25.78.25.33,0,.59-.09.79-.28.24-.23.37-.58.37-1.05,0-.41-.1-.73-.29-.96M58.71,63.84c-.07.17-.2.26-.37.26-.15,0-.27-.06-.34-.19-.06-.11-.09-.27-.09-.47s.03-.35.09-.46c.07-.13.19-.2.34-.2s.26.06.34.19c.06.11.1.27.1.47,0,.16-.02.29-.06.4"/>
          <path class="cls-2" d="M62.61,13.88c-.36,0-.65.23-.91.48l-3.02,2.74c-1.77,1.51-2.31,2.41-2.31,5.45v28.02c0,2.87-.28,3.21-2.46,5.01-.25.21-.46.28-.53.69h.21c.77,0,.88-.11,1.38-.59,1.17-1.12,3.52-2.93,4.18-4.21.25-1.22.29-2.03.29-5.44v-26.62c0-3.92,3.29-4.28,3.68-5.4-.18-.1-.34-.13-.49-.13"/>
          <path class="cls-2" d="M55.01,47.18V14.75c.66.13.5.57.97.83.25-.08,1.38-1.24,1.6-1.49.96-1.1-1.29-3.1-1.86-3.9-.53-.74-.69-1.92-.85-2.2-.32.11-1.12.98-1.38,1.25-.46.47-.94.7-.93,1.72,0,1.12.76,2.01,1.14,2.43l.03,32.85-1.18.98h-1.96c.05-.06.09-.11.13-.15,1.31-1.54,1.36-1.97.95-4.49-.15-.92-.56-1.56-1.14-2.09-.39-.35-1.43-1.45-1.87-1.52,0,.42-.06,3.88.04,4.16.16.5,1.64,1.24,2.06,2.2.51,1.12-.18,1.76-2.2,1.88h-2.1v.03h-.36s-.1.01-.1.01c-.36.01-.64.02-.85.02-1.8,0-2.96-2.06-3.46-3.57.6-.15,1.14-.27,1.6-.37.46-.1.84-.17,1.13-.22l1.35-4.28c-1.17.27-2.13.47-2.91.62-.77.15-1.36.22-1.76.22-1.01,0-2.46-.62-4.35-1.85-1.91-1.24-3.08-1.85-3.49-1.85-.62,0-1.26.94-1.9,2.83,0,0-.09.31-.27.93-.18.62-.45,1.54-.79,2.77.12.29.32.44.6.44,0,0,.03,0,.08-.02.05-.01.13-.03.23-.06.19-.48.36-.88.49-1.2.14-.32.25-.53.34-.65.45-.41.76-.57.91-.47,1.25.55,2.32,1.06,3.22,1.5.9.45,1.65.83,2.25,1.14-1.9,1.45-7.01,4.09-9.08,4.08h-2.16l.04-.06c.15-.19.28-.39.39-.59.36-.55.56-1.16.64-1.9.06-.61.06-2.65-.04-3.22-.01-.08-.03-.15-.04-.22,0-.04,0-.08-.01-.11-.15-.99-.55-1.67-1.13-2.23-.38-.37-1.42-1.56-1.86-1.63,0,.46-.06,4.16.04,4.47,0,.03.01.05.03.08,0,.11.01.18.03.21.15.46,1.47,1.16,1.97,2.04,0,.01.01.03.02.04.28.67.19,1.56-.29,2.24l-2.1.86h-5.2v.04h-10.71c-1.33-.12-2.89-.93-3.88-1.78l-.7-.82c-.27-.31-.32-.46-.58-.87-.47-.74-.66-1.13-.86-2.1-.1-.47-.15-.64-.18-.69,0,.17-.03.11-.03.05,0-.04,0-.08.03-.05,0-.11.01-.32,0-.7-.01-.81-.08-1.96-.35-2.62-.41-1-.83-.86-2-.82.08.32.15.26.4.48.18.16.24.27.38.47.23.32.46.83.52,1.24.37,2.26-.42,3.05.43,5.89.77,2.59,2.77,4.89,5.41,5.81h15.55c.15-.04.29-.08.4-.13.32-.14,2.81-2.39,3.19-2.7.09,1.37.79,2.31,1.49,2.82.97,0,1.88.04,2.87.04,1.61,0,3.3-.72,5.06-2.14.12-.1.55-.51,1.29-1.21.74-.72,1.8-1.73,3.17-3.07.61,2.35,1.19,3.88,1.75,4.61.84,1.21,1.98,1.81,3.44,1.81h.99s1.26-.01,1.26-.01c.65-.71.95-1.29,1.16-1.3.32.62.6.74,1.03,1.3h1.06c.9-.37,1.62-1.14,2.4-1.95.71-.74,1.08-1.28,1.34-1.65h.01Z"/>
          <path class="cls-2" d="M12.98,41.81l.93.99c.94,1.23.56.91.92,1.6.32,0,2.22-1.81,2.22-2.51,0-1.07-2.01-2.59-2.15-2.63-.29.15-2.01,1.86-2.2,2.15.04.08-.03.05.11.23.04.06.11.11.18.17h0Z"/>
          <path class="cls-2" d="M17.29,41.4c.04.08-.03.05.11.23.04.06.11.11.18.17l.93.99c.94,1.23.56.91.92,1.6.32,0,2.21-1.81,2.22-2.51,0-1.07-2.01-2.59-2.15-2.63-.29.15-2.01,1.86-2.2,2.15h0Z"/>
          <path class="cls-2" d="M49.07,51.07c-.29.15-2.01,1.86-2.2,2.15.04.08-.03.05.11.24.04.06.11.11.17.17l.93.99c.94,1.23.56.91.92,1.6.32,0,2.21-1.81,2.22-2.51,0-1.07-2.01-2.59-2.15-2.63"/>
          <path class="cls-2" d="M15.16,38.32l.93.99c.94,1.24.56.91.92,1.6.32,0,2.21-1.81,2.22-2.51,0-1.07-2.01-2.59-2.15-2.63-.29.15-2.01,1.86-2.2,2.15.04.08-.03.05.11.24.04.06.11.11.17.17"/>
          <path class="cls-3" d="M2.13,27.62c.32-.01,2.21-1.81,2.22-2.51,0-1.07-2.01-2.58-2.15-2.63-.29.15-2.01,1.86-2.2,2.15.04.08-.03.05.11.24.04.06.11.11.17.17l.93.99c.94,1.23.56.91.92,1.6"/>
          <path class="cls-3" d="M2.54,27.97c-.29.15-2.01,1.86-2.2,2.15.04.08-.02.05.11.23.04.06.11.11.18.17l.93.99c.94,1.23.56.91.92,1.6.32,0,2.22-1.81,2.22-2.51,0-1.07-2.01-2.59-2.15-2.63h0Z"/>
          <path class="cls-3" d="M47.39,30.59s0-.18.04-.24h0s.03-23.34.03-23.34c.67.14.51.58,1,.85.25-.09,1.41-1.27,1.64-1.52.98-1.12-1.32-3.17-1.9-3.98-.53-.75-.7-1.97-.86-2.25-.33.11-1.14,1-1.41,1.28-.47.48-.96.72-.96,1.76,0,1.02.62,1.85,1.03,2.32v24.06l-.18.15c-.29.25-.59.49-.88.74h-6.59c-.7-.6-1.38-.06.84-2.45.58-.63,2.71-2.91,3.12-3.12.44-.22.75-.45,1.42-.36.65.09.79.59,1.14.63.1-.52.04-1.22.04-1.76,0-.93-.13-1.2-.67-1.64-.55-.44-1.05-.46-1.92-.46h-4.92c-1.35,0-1.85.39-2.77,1.35-1.73,1.79-1.48,1.48-1.48,4.93,0,2.54,1.66,3.95,1.74,4.33-.18,3.67-3.24-1.05-3.24-3.6V8.68c0-3.04.06-3.94-1.71-5.46l-3.01-2.74c-.27-.25-.55-.48-.91-.48-.15,0-.31.04-.49.13.38,1.13,3.21,1.47,3.21,5.4v15.67c-.17.56-.59,1.21-.79,1.5-.18.27-.55.63-.91.83-.2.11-.62.25-1.1.39v.03c-1.65.39-3.29,2.43-3.87,2.66-.51-.25-.66-.91-1.12-.98-.03.48.04,1.7-.04,2.05-.15.6-.81.87-2.1.86-.37-1.35.13-3.83-.15-5.77-.33-2.18-4.75-3.43-6-.29-.15.37-.44,1.14-.46,1.67-.13,2.72,1.01,3.81,1.44,5.52.32,1.29-.14,3.35-1.5,3.35-.51,0-1.03.01-1.52.03-.25,0-.49-.03-.7-.06-.84-.13-1.9-1.05-2.53-1.92l-.44-.85c-.17-.32-.2-.48-.36-.9-.29-.77-.41-1.17-.54-2.16-.22-1.76-.11-1.02-.13-2.96,0-.84-.05-2.03-.22-2.7-.26-1.03-.52-.88-1.25-.85.06.34.1.27.25.51.11.17.15.27.24.48.14.33.28.86.32,1.28.23,2.33-.24,4.68.29,7.6.62,3.48,2.56,6.45,4.99,6.42h.07v.04c.14,0,.28-.01.42-.04h.2v-.04c.33-.08.66-.23,1.07-.53.72-.52,2.08-2.56,2.54-3.54.35-.74.55-1.57.61-2.63.1-1.73-.41-4.4-1.36-5.91-.86-1.35-.18-1.73,1.13-1.49,1.61.15,1.09,4.37,1.11,7.41.01,1.53,1.68,1.28,2.67.7.04-.03,1.59-2.02,1.85-2.09.1.2.2,1.15.32,1.5.16.48.34.81.65,1.1,1.97,1.84,3.64-.78,5.25-2.22.53-.48.44-.29.84-.9.65-.98.93-3.04-.07-3.97.4-.22.73-.49,1-.8.18,3.19.46,5.83.96,6.8,2.39,4.66,3.93,4.94,5.84,2.27.61.04,1.44,1.16,3.7,1.5h3.17c1.33-.2,2.3-.74,3.59-2.09.78-.81.86-.78,1.33-1.45h-.01ZM25.35,29.57c-.08,0-.16,0-.26-.03-.52-.1-1.39-.97-1.73-1.35-.74-.83-1.12-.9.32-1.31.48-.14.92-.18,1.41.02.34.13.53.46.71.79.34.64.51,1.88-.45,1.88M36.9,29.28c-.15-.18-.28-.3-.41-.45-.74-.86-4.6-4.57-.96-4.57h6.07c-.06.2-1.47,1.59-1.66,1.76-.58.53-1.14,1.21-1.71,1.76-1.12,1.1-1.17,1.64-1.17,1.76-.01-.04-.05-.13-.17-.27h0Z"/>
          <path class="cls-3" d="M55.03,4.02c-.36,0-.65.23-.91.48l-3.02,2.74c-1.77,1.51-2.37,2.43-2.37,5.47l.02,1.64v18.23c0,2.87-.28,3.21-2.46,5.01-.25.21-.46.28-.53.69.96,0,1.04-.06,1.59-.59,4.58-4.4,4.63-3.7,4.51-10.36V9.56c0-3.92,3.29-4.28,3.67-5.4-.18-.1-.34-.13-.49-.13h0Z"/>
          <path class="cls-3" d="M2.72,70.94c-.23,0-.43-.03-.58-.1-.15-.07-.27-.15-.35-.26-.08-.11-.12-.22-.13-.34,0-.02,0-.04.02-.05.02-.02.03-.02.05-.02h.44s.06,0,.08.02c.02.01.03.03.05.05.02.04.04.07.08.1.03.03.08.06.13.08.06.02.12.03.2.03.14,0,.24-.02.31-.06.07-.04.1-.1.1-.17,0-.05-.02-.1-.06-.13s-.1-.06-.18-.09c-.08-.03-.19-.05-.33-.08-.18-.04-.33-.09-.45-.14-.12-.06-.22-.14-.29-.23-.07-.1-.1-.22-.1-.36s.04-.27.12-.38c.08-.11.19-.2.34-.26.14-.06.32-.09.51-.09.16,0,.3.02.42.06.12.04.23.1.31.17.08.07.15.14.19.22.04.08.07.15.07.23,0,.02,0,.04-.02.05-.01.02-.03.02-.05.02h-.46s-.05,0-.07-.01c-.02,0-.03-.02-.05-.05-.01-.05-.05-.1-.11-.13-.06-.04-.14-.06-.23-.06-.1,0-.18.02-.24.05s-.09.09-.09.17c0,.05.02.09.05.12.03.03.08.06.16.09s.17.05.3.08c.21.04.38.09.51.15.13.06.23.14.29.23.06.09.09.21.09.35,0,.16-.05.29-.14.41-.09.11-.21.2-.37.26-.16.06-.34.09-.55.09M5.13,70.94c-.22,0-.41-.04-.57-.11-.16-.07-.28-.18-.37-.32-.09-.14-.14-.31-.14-.52,0-.1,0-.2,0-.31s0-.21,0-.31c0-.2.06-.37.15-.52.09-.14.21-.25.37-.32.16-.07.35-.11.56-.11.15,0,.3.02.43.06.13.04.24.09.34.17.1.07.17.16.23.27.05.1.08.22.09.35,0,.02,0,.04-.02.05-.02.01-.03.02-.05.02h-.47s-.05,0-.07-.02c-.02-.01-.03-.04-.04-.07-.03-.12-.09-.21-.16-.25-.07-.05-.16-.07-.27-.07-.13,0-.23.04-.3.11-.07.07-.12.19-.12.35,0,.19,0,.39,0,.59,0,.17.05.28.12.35.07.07.18.11.3.11.11,0,.2-.02.27-.07.07-.05.13-.13.16-.25,0-.03.02-.06.04-.07.02-.01.04-.02.07-.02h.47s.04,0,.05.02c.02.01.02.03.02.05,0,.13-.03.25-.09.35-.05.1-.13.19-.23.27-.1.07-.21.13-.34.17s-.27.06-.43.06M6.66,70.91s-.05,0-.06-.02c-.02-.02-.02-.04-.02-.06v-2.27s0-.05.02-.06c.02-.02.04-.02.06-.02h.45s.05,0,.06.02c.02.02.03.04.03.06v.84h.86v-.84s0-.05.02-.06c.02-.02.04-.02.06-.02h.45s.05,0,.06.02c.02.02.02.04.02.06v2.27s0,.04-.02.06c-.02.02-.04.03-.06.03h-.45s-.05,0-.06-.03c-.02-.02-.02-.04-.02-.06v-.87h-.86v.87s0,.04-.03.06c-.02.02-.04.03-.06.03h-.45ZM10.18,70.94c-.21,0-.4-.03-.56-.1-.16-.07-.28-.18-.37-.32-.09-.14-.14-.32-.15-.53,0-.1,0-.2,0-.3s0-.2,0-.3c0-.21.06-.39.15-.53.09-.14.21-.25.37-.32.16-.07.34-.11.55-.11s.4.04.56.11c.16.07.28.18.37.32.09.14.14.32.15.53,0,.1,0,.2,0,.3s0,.2,0,.3c0,.21-.06.39-.14.53-.09.14-.21.25-.37.32-.16.07-.34.1-.56.1M10.18,70.44c.12,0,.22-.04.3-.11.08-.07.12-.19.12-.36,0-.1,0-.2,0-.29s0-.19,0-.28c0-.11-.03-.2-.06-.27-.04-.07-.09-.12-.15-.15-.06-.03-.14-.05-.22-.05s-.15.02-.21.05c-.06.03-.11.08-.15.15-.04.07-.06.16-.06.27,0,.1,0,.19,0,.28s0,.19,0,.29c0,.16.05.28.13.36.08.07.18.11.3.11M12.67,70.94c-.21,0-.4-.03-.56-.1-.16-.07-.28-.18-.37-.32-.09-.14-.14-.32-.15-.53,0-.1,0-.2,0-.3s0-.2,0-.3c0-.21.06-.39.15-.53.09-.14.21-.25.37-.32.16-.07.34-.11.55-.11s.4.04.56.11c.16.07.28.18.37.32.09.14.14.32.15.53,0,.1,0,.2,0,.3s0,.2,0,.3c0,.21-.06.39-.14.53-.09.14-.21.25-.37.32-.16.07-.35.1-.56.1M12.67,70.44c.12,0,.22-.04.3-.11.08-.07.12-.19.12-.36,0-.1,0-.2,0-.29s0-.19,0-.28c0-.11-.03-.2-.06-.27-.04-.07-.09-.12-.15-.15-.06-.03-.14-.05-.22-.05s-.15.02-.21.05c-.06.03-.11.08-.15.15-.04.07-.06.16-.06.27,0,.1,0,.19,0,.28s0,.19,0,.29c0,.16.05.28.13.36.08.07.18.11.3.11M14.24,70.91s-.05,0-.06-.03c-.02-.02-.02-.04-.02-.06v-2.27s0-.05.02-.06c.02-.02.04-.02.06-.02h.46s.05,0,.06.02c.02.02.02.04.02.06v1.83h1.06s.05,0,.06.03c.02.02.02.04.02.06v.35s0,.04-.02.06c-.02.02-.04.03-.06.03h-1.61ZM17.15,70.94c-.23,0-.43-.03-.58-.1-.15-.07-.27-.15-.35-.26-.08-.11-.12-.22-.13-.34,0-.02,0-.04.02-.05.02-.02.03-.02.05-.02h.44s.06,0,.08.02c.02.01.03.03.05.05.02.04.04.07.08.1.03.03.08.06.13.08.06.02.12.03.2.03.14,0,.24-.02.31-.06.07-.04.1-.1.1-.17,0-.05-.02-.1-.06-.13-.04-.03-.1-.06-.18-.09-.08-.03-.19-.05-.33-.08-.18-.04-.33-.09-.45-.14-.12-.06-.22-.14-.28-.23-.07-.1-.1-.22-.1-.36s.04-.27.12-.38c.08-.11.19-.2.34-.26.14-.06.32-.09.51-.09.16,0,.3.02.42.06.12.04.23.1.31.17.08.07.15.14.19.22.04.08.07.15.07.23,0,.02,0,.04-.02.05-.01.02-.03.02-.05.02h-.46s-.05,0-.07-.01c-.02,0-.03-.02-.05-.05-.01-.05-.05-.1-.11-.13-.06-.04-.14-.06-.23-.06-.1,0-.18.02-.24.05s-.09.09-.09.17c0,.05.02.09.05.12.03.03.08.06.16.09s.17.05.3.08c.21.04.38.09.51.15.13.06.23.14.29.23.06.09.09.21.09.35,0,.16-.05.29-.14.41-.09.11-.21.2-.37.26-.16.06-.34.09-.55.09M20.3,70.94c-.21,0-.4-.03-.56-.1-.16-.07-.28-.18-.37-.32-.09-.14-.14-.32-.15-.53,0-.1,0-.2,0-.3s0-.2,0-.3c0-.21.06-.39.15-.53.09-.14.21-.25.37-.32.16-.07.34-.11.55-.11s.4.04.56.11.28.18.37.32c.09.14.14.32.15.53,0,.1,0,.2,0,.3s0,.2,0,.3c0,.21-.06.39-.14.53-.09.14-.21.25-.37.32-.16.07-.34.1-.56.1M20.3,70.44c.12,0,.22-.04.3-.11.08-.07.12-.19.12-.36,0-.1,0-.2,0-.29s0-.19,0-.28c0-.11-.03-.2-.06-.27-.04-.07-.09-.12-.15-.15-.06-.03-.14-.05-.22-.05s-.15.02-.21.05-.11.08-.15.15c-.04.07-.06.16-.06.27,0,.1,0,.19,0,.28s0,.19,0,.29c0,.16.05.28.13.36.08.07.18.11.3.11M21.87,70.91s-.05,0-.06-.03c-.02-.02-.02-.04-.02-.06v-2.27s0-.05.02-.06c.02-.02.04-.02.06-.02h1.61s.05,0,.06.02c.02.02.02.04.02.06v.35s0,.05-.02.06c-.02.02-.04.02-.06.02h-1.08v.51h1.01s.05,0,.06.03c.02.02.02.04.02.06v.35s0,.04-.02.06c-.02.02-.04.03-.06.03h-1.01v.79s0,.04-.02.06c-.02.02-.04.03-.06.03h-.44ZM24.72,70.91s-.05,0-.06-.03c-.02-.02-.02-.04-.02-.06v-2.27s0-.05.02-.06c.02-.02.04-.02.06-.02h.95c.3,0,.54.07.71.21.17.14.26.33.26.59,0,.17-.04.31-.12.42-.08.11-.18.2-.31.26l.48.86s.01.03.01.04c0,.02,0,.04-.02.05-.02.02-.03.02-.05.02h-.46s-.08-.01-.1-.03c-.02-.02-.04-.04-.05-.06l-.4-.77h-.36v.78s0,.04-.03.06c-.02.02-.04.03-.06.03h-.45ZM25.26,69.55h.4c.11,0,.19-.03.25-.08.05-.05.08-.13.08-.22s-.03-.16-.08-.22c-.05-.06-.14-.08-.25-.08h-.4v.6ZM27.14,70.91s-.05,0-.06-.03c-.02-.02-.02-.04-.02-.06v-2.27s0-.05.02-.06c.02-.02.04-.02.06-.02h1.63s.05,0,.06.02c.02.02.02.04.02.06v.33s0,.05-.02.06c-.02.02-.04.02-.06.02h-1.11v.47h1.04s.05,0,.06.03c.02.02.02.04.02.06v.3s0,.04-.02.06c-.02.02-.04.03-.06.03h-1.04v.49h1.14s.05,0,.06.02c.02.02.02.04.02.06v.33s0,.04-.02.06c-.02.02-.04.03-.06.03h-1.66ZM30.19,70.94c-.23,0-.43-.03-.58-.1-.15-.07-.27-.15-.35-.26-.08-.11-.12-.22-.13-.34,0-.02,0-.04.02-.05.02-.02.03-.02.05-.02h.44s.06,0,.08.02c.02.01.03.03.05.05.02.04.04.07.08.1.03.03.08.06.13.08.06.02.12.03.2.03.14,0,.24-.02.31-.06.07-.04.1-.1.1-.17,0-.05-.02-.1-.06-.13s-.1-.06-.18-.09c-.08-.03-.19-.05-.33-.08-.18-.04-.33-.09-.45-.14-.12-.06-.22-.14-.28-.23-.07-.1-.1-.22-.1-.36s.04-.27.12-.38c.08-.11.19-.2.34-.26.14-.06.32-.09.51-.09.16,0,.3.02.42.06.12.04.23.1.31.17.08.07.15.14.19.22.04.08.07.15.07.23,0,.02,0,.04-.02.05-.01.02-.03.02-.05.02h-.46s-.05,0-.07-.01c-.02,0-.03-.02-.05-.05-.01-.05-.05-.1-.11-.13-.06-.04-.14-.06-.23-.06-.1,0-.18.02-.24.05-.06.04-.09.09-.09.17,0,.05.02.09.05.12.03.03.08.06.16.09.07.03.17.05.3.08.21.04.38.09.51.15.13.06.23.14.29.23.06.09.09.21.09.35,0,.16-.05.29-.14.41-.09.11-.21.2-.37.26-.16.06-.34.09-.55.09M31.68,70.91s-.05,0-.06-.03c-.02-.02-.02-.04-.02-.06v-2.27s0-.05.02-.06c.02-.02.04-.02.06-.02h1.63s.05,0,.06.02c.02.02.02.04.02.06v.33s0,.05-.02.06c-.02.02-.04.02-.06.02h-1.11v.47h1.04s.05,0,.06.03c.02.02.02.04.02.06v.3s0,.04-.02.06c-.02.02-.04.03-.06.03h-1.04v.49h1.14s.05,0,.06.02c.02.02.02.04.02.06v.33s0,.04-.02.06c-.02.02-.04.03-.06.03h-1.66ZM33.69,70.91s-.04,0-.05-.02c-.01-.02-.02-.03-.02-.05,0-.01,0-.02,0-.03l.82-2.24s.02-.05.04-.07c.02-.02.05-.03.09-.03h.52s.07.01.09.03c.02.02.04.04.04.07l.82,2.24s0,.02,0,.03c0,.02,0,.04-.02.05-.02.02-.03.02-.05.02h-.43s-.06,0-.08-.03c-.02-.02-.03-.03-.03-.05l-.14-.36h-.93l-.13.36s-.02.03-.03.05c-.02.02-.04.03-.08.03h-.43ZM34.51,69.98h.65l-.33-.92-.32.92ZM36.42,70.91s-.05,0-.06-.03c-.02-.02-.02-.04-.02-.06v-2.27s0-.05.02-.06c.02-.02.04-.02.06-.02h.95c.3,0,.54.07.71.21.17.14.26.33.26.59,0,.17-.04.31-.12.42-.08.11-.18.2-.31.26l.48.86s.01.03.01.04c0,.02,0,.04-.02.05-.02.02-.03.02-.05.02h-.46s-.08-.01-.1-.03c-.02-.02-.04-.04-.05-.06l-.4-.77h-.36v.78s0,.04-.03.06c-.02.02-.04.03-.06.03h-.45ZM36.96,69.55h.4c.11,0,.19-.03.25-.08.05-.05.08-.13.08-.22s-.03-.16-.08-.22c-.05-.06-.14-.08-.25-.08h-.4v.6ZM39.74,70.94c-.22,0-.41-.04-.57-.11-.16-.07-.28-.18-.37-.32-.09-.14-.14-.31-.15-.52,0-.1,0-.2,0-.31s0-.21,0-.31c0-.2.06-.37.15-.52.09-.14.21-.25.37-.32.16-.07.35-.11.56-.11.15,0,.3.02.43.06.13.04.24.09.34.17s.17.16.23.27c.05.1.08.22.09.35,0,.02,0,.04-.02.05-.02.01-.03.02-.05.02h-.47s-.05,0-.07-.02c-.02-.01-.03-.04-.04-.07-.03-.12-.09-.21-.16-.25-.07-.05-.16-.07-.27-.07-.13,0-.23.04-.3.11-.07.07-.12.19-.12.35,0,.19,0,.39,0,.59,0,.17.05.28.12.35s.18.11.3.11c.11,0,.2-.02.27-.07.07-.05.13-.13.16-.25,0-.03.02-.06.04-.07.02-.01.04-.02.07-.02h.47s.04,0,.05.02c.02.01.02.03.02.05,0,.13-.03.25-.09.35-.05.1-.13.19-.23.27s-.21.13-.34.17c-.13.04-.27.06-.43.06M41.27,70.91s-.05,0-.06-.02c-.02-.02-.02-.04-.02-.06v-2.27s0-.05.02-.06c.02-.02.04-.02.06-.02h.45s.05,0,.06.02c.02.02.03.04.03.06v.84h.86v-.84s0-.05.02-.06c.02-.02.04-.02.06-.02h.45s.05,0,.06.02c.02.02.02.04.02.06v2.27s0,.04-.02.06c-.02.02-.04.03-.06.03h-.45s-.05,0-.06-.03c-.02-.02-.02-.04-.02-.06v-.87h-.86v.87s0,.04-.03.06c-.02.02-.04.03-.06.03h-.45ZM45.44,70.94c-.23,0-.43-.03-.58-.1-.15-.07-.27-.15-.35-.26-.08-.11-.12-.22-.13-.34,0-.02,0-.04.02-.05.02-.02.03-.02.05-.02h.44s.06,0,.08.02c.02.01.03.03.05.05.02.04.04.07.08.1.03.03.08.06.13.08.06.02.12.03.2.03.14,0,.24-.02.31-.06.07-.04.1-.1.1-.17,0-.05-.02-.1-.06-.13-.04-.03-.1-.06-.18-.09-.08-.03-.19-.05-.33-.08-.18-.04-.33-.09-.45-.14-.12-.06-.22-.14-.29-.23-.07-.1-.1-.22-.1-.36s.04-.27.12-.38c.08-.11.19-.2.34-.26.14-.06.32-.09.51-.09.16,0,.3.02.42.06.12.04.23.1.31.17.08.07.15.14.19.22.04.08.07.15.07.23,0,.02,0,.04-.02.05-.01.02-.03.02-.05.02h-.46s-.05,0-.07-.01c-.02,0-.04-.02-.05-.05-.01-.05-.05-.1-.11-.13-.06-.04-.14-.06-.23-.06-.1,0-.18.02-.24.05-.06.04-.09.09-.09.17,0,.05.02.09.05.12.03.03.08.06.16.09s.17.05.3.08c.21.04.38.09.51.15.13.06.23.14.29.23.06.09.09.21.09.35,0,.16-.05.29-.14.41-.09.11-.21.2-.37.26-.16.06-.34.09-.55.09M47.85,70.94c-.22,0-.41-.04-.57-.11-.16-.07-.28-.18-.37-.32-.09-.14-.14-.31-.15-.52,0-.1,0-.2,0-.31s0-.21,0-.31c0-.2.06-.37.15-.52.09-.14.21-.25.37-.32.16-.07.35-.11.56-.11.15,0,.3.02.43.06.13.04.24.09.34.17.1.07.17.16.23.27.05.1.08.22.09.35,0,.02,0,.04-.02.05-.02.01-.03.02-.05.02h-.47s-.05,0-.07-.02c-.02-.01-.03-.04-.04-.07-.03-.12-.09-.21-.16-.25-.07-.05-.16-.07-.27-.07-.13,0-.23.04-.3.11-.07.07-.12.19-.12.35,0,.19,0,.39,0,.59,0,.17.05.28.12.35.07.07.18.11.3.11.11,0,.2-.02.27-.07.07-.05.13-.13.16-.25,0-.03.02-.06.04-.07.02-.01.04-.02.07-.02h.47s.04,0,.05.02c.02.01.02.03.02.05,0,.13-.03.25-.09.35-.05.1-.13.19-.23.27-.1.07-.21.13-.34.17-.13.04-.27.06-.43.06M49.39,70.91s-.05,0-.06-.03c-.02-.02-.02-.04-.02-.06v-2.27s0-.05.02-.06c.02-.02.04-.02.06-.02h.47s.05,0,.06.02c.02.02.03.04.03.06v2.27s0,.04-.03.06c-.02.02-.04.03-.06.03h-.47ZM50.52,70.91s-.05,0-.06-.03c-.02-.02-.02-.04-.02-.06v-2.27s0-.05.02-.06c.02-.02.04-.02.06-.02h1.63s.05,0,.06.02c.02.02.02.04.02.06v.33s0,.05-.02.06c-.02.02-.04.02-.06.02h-1.11v.47h1.04s.05,0,.06.03c.02.02.02.04.02.06v.3s0,.04-.02.06c-.02.02-.04.03-.06.03h-1.04v.49h1.14s.05,0,.06.02c.02.02.02.04.02.06v.33s0,.04-.02.06c-.02.02-.04.03-.06.03h-1.66ZM52.75,70.91s-.05,0-.06-.03c-.02-.02-.02-.04-.02-.06v-2.27s0-.05.02-.06c.02-.02.04-.02.06-.02h.37s.07,0,.09.03c.02.02.03.03.03.04l.85,1.34v-1.32s0-.05.02-.06c.02-.02.04-.02.06-.02h.42s.05,0,.06.02c.02.02.02.04.02.06v2.27s0,.05-.02.06c-.02.02-.04.03-.06.03h-.37s-.06,0-.08-.03c-.02-.02-.03-.03-.03-.04l-.85-1.29v1.27s0,.04-.02.06c-.02.02-.04.03-.06.03h-.42ZM56.18,70.94c-.22,0-.41-.04-.57-.11-.16-.07-.28-.18-.37-.32-.09-.14-.14-.31-.14-.52,0-.1,0-.2,0-.31s0-.21,0-.31c0-.2.06-.37.15-.52.09-.14.21-.25.37-.32.16-.07.35-.11.56-.11.15,0,.3.02.43.06.13.04.24.09.34.17.1.07.17.16.23.27.05.1.08.22.09.35,0,.02,0,.04-.02.05-.02.01-.03.02-.05.02h-.47s-.05,0-.07-.02c-.02-.01-.03-.04-.04-.07-.03-.12-.09-.21-.16-.25-.07-.05-.16-.07-.27-.07-.13,0-.23.04-.3.11-.07.07-.12.19-.12.35,0,.19,0,.39,0,.59,0,.17.05.28.12.35.07.07.18.11.3.11.11,0,.2-.02.27-.07.07-.05.13-.13.16-.25,0-.03.02-.06.04-.07.02-.01.04-.02.07-.02h.47s.04,0,.05.02c.02.01.02.03.02.05,0,.13-.03.25-.09.35-.05.1-.13.19-.23.27-.1.07-.21.13-.34.17s-.27.06-.43.06M57.72,70.91s-.05,0-.06-.03c-.02-.02-.02-.04-.02-.06v-2.27s0-.05.02-.06c.02-.02.04-.02.06-.02h1.63s.05,0,.06.02c.02.02.02.04.02.06v.33s0,.05-.02.06c-.02.02-.04.02-.06.02h-1.11v.47h1.04s.05,0,.06.03c.02.02.02.04.02.06v.3s0,.04-.02.06c-.02.02-.04.03-.06.03h-1.04v.49h1.14s.05,0,.06.02.02.04.02.06v.33s0,.04-.02.06c-.02.02-.04.03-.06.03h-1.66Z"/>
          <rect class="cls-3" x="1.67" y="73.87" width="57.77" height=".35"/>
        </g>
      </g>
    </g>
  </g>
</svg>
