<?xml version="1.0" encoding="UTF-8"?><svg id="a" xmlns="http://www.w3.org/2000/svg" width="89.86" height="80.13" viewBox="0 0 89.86 80.13"><path d="M18.08,59c.06.12,0,.08.16.34.08.09.16.17.25.24l1.32,1.41c.59.66,1.04,1.44,1.31,2.28.46,0,3.15-2.58,3.16-3.58,0-1.52-2.86-3.68-3.06-3.75-1.12.94-2.17,1.96-3.14,3.06" fill="#fff" fill-rule="evenodd" stroke-width="0"/><path d="M24.62,59c.07.12,0,.08.17.34.07.08.16.17.24.24l1.33,1.41c.59.66,1.04,1.44,1.31,2.28.46,0,3.15-2.58,3.16-3.58,0-1.52-2.86-3.68-3.06-3.75-1.13.94-2.18,1.96-3.15,3.06" fill="#fff" fill-rule="evenodd" stroke-width="0"/><path d="M21.18,54c.06.11,0,.07.17.33.07.09.15.17.24.24l1.33,1.43c.59.66,1.04,1.44,1.31,2.28.45,0,3.15-2.58,3.15-3.57,0-1.53-2.85-3.69-3.06-3.76-1.12.93-2.17,1.95-3.14,3.05" fill="#fff" fill-rule="evenodd" stroke-width="0"/><path d="M66.74,75.79c.06.12,0,.07.16.33.08.09.16.17.25.25l1.32,1.41c.59.66,1.04,1.44,1.31,2.28.46,0,3.16-2.58,3.16-3.58,0-1.53-2.86-3.69-3.06-3.75-1.13.93-2.18,1.96-3.14,3.06" fill="#fff" fill-rule="evenodd" stroke-width="0"/><path d="M33.72,38.29c.65-.24,1.35-.24,2,0,.45.25.81.64,1,1.12.52,1,.76,3-1,2.64-.95-.44-1.79-1.1-2.46-1.91-1.05-1.18-1.6-1.28.45-1.87M59.23,34.52c-.73.88-1.52,1.71-2.36,2.48-.82.76-1.62,1.72-2.43,2.51-2.63,2.58-1.14,3-1.89,2.14-.21-.26-.4-.43-.58-.65-1-1.23-6.55-6.5-1.37-6.51h8.64M29.64,41.02c.14.28.29,1.64.46,2.13.15.61.46,1.17.9,1.62,2.81,2.62,5.2-1.11,7.48-3.16.76-.68.63-.42,1.2-1.29.93-1.39,1.32-4.33-.1-5.65.54-.29,1.02-.68,1.42-1.14.24,4.55.66,8.31,1.36,9.68,3.42,6.63,5.6,7,8.32,3.24.87.06,2,1.65,5.27,2.14h4.52c1.9-.28,3.27-1.05,5.11-3,.71-.61,1.35-1.3,1.9-2.06v-.34h0V9.96c1,.2.73.82,1.42,1.21.88-.64,1.7-1.37,2.44-2.17,1.4-1.59-1.88-4.5-2.71-5.67-.53-1.02-.95-2.09-1.23-3.2-.74.52-1.41,1.13-2,1.82-.68.68-1.4,1.05-1.4,2.5.09,1.24.6,2.41,1.46,3.31v34.24l-.25.21-1.26,1h-9.35c-1-.84-2-.07,1.19-3.48,1.39-1.57,2.87-3.06,4.44-4.45.58-.41,1.29-.6,2-.51.91.13,1.11.85,1.62.91.09-.83.11-1.67.06-2.51,0-1.33-.18-1.71-1-2.33-.8-.56-1.78-.79-2.74-.65h-7c-1.92,0-2.65.56-3.95,1.92-2.46,2.55-2.11,2.11-2.11,7,0,3.61,2.36,5.61,2.48,6.16-.2,5.3-4.59-1.41-4.59-5.05V12.35c0-4.33.08-5.61-2.44-7.76l-4.26-3.9c-.45-.64-1.3-.85-2-.5.54,1.61,4.57,2.1,4.57,7.69v22.32c-.27.76-.65,1.48-1.13,2.13-.35.48-.79.88-1.3,1.18-.5.23-1.02.41-1.55.54h0c-2.35.55-4.69,3.46-5.51,3.79-.73-.35-.94-1.29-1.6-1.4,0,.69.06,2.42-.06,2.92-.21.85-1.15,1.24-3,1.23-.51-1.92.2-5.44-.22-8.21-.46-3.11-6.77-4.89-8.53-.42-.33.76-.55,1.57-.66,2.39-.19,3.87,1.44,5.43,2.05,7.86.46,1.83-.2,4.77-2.14,4.77h-2.18c-.34,0-.67-.04-1-.09-1.48-.47-2.75-1.44-3.6-2.73l-.6-1.16c-.19-.41-.36-.84-.51-1.27-.41-.99-.67-2.03-.76-3.09-.22-1.39-.28-2.8-.19-4.21.02-1.29-.08-2.58-.31-3.85-.37-1.47-.74-1.26-1.78-1.21.07.48.14.39.36.72.13.22.25.45.34.69.23.58.39,1.19.46,1.81.34,3.33-.34,6.66.41,10.83.9,4.95,3.64,9.17,7.1,9.15h.09v.06c.2.01.4.01.6,0h.29v-.07c.55-.14,1.07-.4,1.52-.75,1.48-1.45,2.7-3.14,3.62-5,.57-1.19.88-2.49.92-3.81.08-2.93-.61-5.82-2-8.4-1.22-1.92-.25-2.46,1.6-2.12,2.29.22,1.55,6.22,1.58,10.56,0,2.18,2.38,1.81,3.79,1,.81-1.06,1.69-2.06,2.64-3" fill="#fff" fill-rule="evenodd" stroke-width="0"/><path d="M69.42,20.43v26c0,4.09-.39,4.57-3.5,7.14-.37.3-.65.4-.76,1,1.37,0,1.48-.09,2.26-.83,6.51-6.28,6.6-5.27,6.42-14.75V13.6c0-5.59,4.69-6.08,5.24-7.69-.7-.36-1.55-.14-2,.5l-4.3,3.89c-2.51,2.16-3.38,3.46-3.38,7.79l.02,2.34Z" fill="#fff" fill-rule="evenodd" stroke-width="0"/><path d="M.47,42.88c.07.12,0,.07.17.34.06.08.16.15.24.24l1.33,1.41c.59.66,1.04,1.44,1.31,2.28.45,0,3.15-2.58,3.16-3.58,0-1.53-2.86-3.69-3.06-3.75-1.13.94-2.18,1.96-3.15,3.06" fill="#fff" fill-rule="evenodd" stroke-width="0"/><path d="M0,35.05c.06.12,0,.07.16.34.08.08.16.17.25.24l1.33,1.37c.59.67,1.02,1.46,1.26,2.32.46,0,3.16-2.58,3.16-3.58,0-1.53-2.86-3.69-3.06-3.75-1.11.94-2.15,1.96-3.1,3.06" fill="#fff" fill-rule="evenodd" stroke-width="0"/><path d="M66.16,67.28h-1.86c-2.58,0-4.22-2.94-4.94-5.08.87-.21,1.63-.38,2.28-.52s1.2-.24,1.62-.31l1.93-6.1c-1.66.38-3,.68-4.14.88-.82.18-1.66.28-2.5.31-1.44,0-3.5-.88-6.2-2.63s-4.38-2.64-5-2.64c-.89,0-1.8,1.34-2.71,4l-.39,1.32c-.26.88-.64,2.2-1.13,3.95.11.37.46.63.85.62h.11l.34-.08c.27-.69.5-1.26.7-1.7.14-.33.3-.64.48-.94.65-.58,1.08-.8,1.3-.67,1.78.8,3.31,1.51,4.58,2.15s2.35,1.18,3.21,1.63c-2.7,2.07-10,5.82-12.93,5.81h-3.04l.07-.08c.21-.26.4-.55.56-.84.52-.81.83-1.74.91-2.7.12-1.53.12-3.06,0-4.59-.01-.1-.03-.21-.06-.31,0-.05,0-.11,0-.16-.15-1.22-.72-2.34-1.61-3.19-.54-.53-2-2.21-2.65-2.32,0,.65-.08,5.93.05,6.36v.11c0,.1,0,.2,0,.3.21.66,2.09,1.64,2.81,2.9v.06c.41,1.06.25,2.26-.41,3.19l-3,1.23H12.78c-2.04-.29-3.95-1.13-5.54-2.44l-1-1.17c-.31-.38-.58-.8-.81-1.23-.63-.9-1.04-1.92-1.22-3-.5-2.4-.21.7-.21-1.97.03-1.26-.14-2.52-.5-3.73-.58-1.43-1.18-1.23-2.84-1.17.12.46.21.37.57.69.21.2.39.42.54.67.37.53.63,1.13.75,1.76.48,3.22-.63,4.35.57,8.35,1.11,3.83,3.97,6.91,7.71,8.3h22.2c.19-.05.38-.11.57-.19.44-.2,4-3.4,4.53-3.84.08,1.58.85,3.05,2.12,4h4.09c2.3,0,4.7-1,7.2-3,.17-.14.78-.72,1.83-1.73s2.56-2.47,4.51-4.37c.87,3.33,1.7,5.52,2.49,6.56,1.07,1.66,2.93,2.65,4.9,2.59h3.15c.93-1,1.36-1.84,1.65-1.84.42.67.91,1.29,1.47,1.84h1.49c1.31-.69,2.47-1.63,3.41-2.77.7-.73,1.34-1.52,1.91-2.36V21c.94.2.71.81,1.39,1.18.83-.63,1.6-1.34,2.29-2.12,1.37-1.56-1.84-4.41-2.65-5.55-.52-1-.92-2.05-1.2-3.14-.74.51-1.41,1.1-2,1.77-.66.67-1.34,1-1.33,2.46.11,1.31.69,2.53,1.63,3.45v46.79l-1.68,1.39h-2.72l.19-.23c1.87-2.19,1.94-2.81,1.36-6.4-.16-1.17-.74-2.23-1.63-3-.54-.5-2-2.07-2.67-2.16,0,.6-.08,5.52,0,5.92.22.71,2.33,1.77,2.94,3.15.72,1.6-.25,2.5-3.14,2.68h-3l.06.09Z" fill="#fff" fill-rule="evenodd" stroke-width="0"/><path d="M80.28,32.11v39.89c0,4.09-.39,4.56-3.51,7.14-.36.3-.64.4-.75,1,1.37,0,1.48-.09,2.26-.84,1.66-1.6,5-4.17,5.94-6,.35-1.74.41-2.89.41-7.75V27.64c0-5.59,4.69-6.08,5.23-7.69-.86-.46-1.46,0-2,.5l-4.3,3.89c-2.52,2.16-3.29,3.44-3.29,7.77" fill="#fff" fill-rule="evenodd" stroke-width="0"/></svg>
